PathFileType	4	(X/Y/Z)	DARI_DATA/Captury_Subj2_bilateral_squat03.trc
DataRate	CameraRate	NumFrames	NumMarkers	Units	OrigDataRate	OrigDataStartFrame	OrigNumFrames
60	60	4	47	mm	60.00239944458008	63	249
Frame#	Time		LeftUpLeg_		RightUpLeg_		LeftLeg_		RightLeg_		LeftFoot_		RightFoot_		LeftToeBase_		RightToeBase_		Knee_Lateral_r		Knee_Lateral_l		Ankle_Lateral_r		Ankle_Lateral_l		LeftArm_		LeftForeArm_		LeftHand_		LeftHandEE		RightArm_		RightForeArm_		RightHand_		RightHandEE		Spine_		Spine1_		Spine2_		Spine3_		Spine4_		Spine5_		Spine_x		Spine_y		Spine_z		RASI		LASI		RIPS		LIPS		RTHI		LTHI		RTIB		LTIB		RTOE		LTOE		RHEE		LHEE		RHipAngles		LHipAngles		RKneeAngles		LKneeAngles		RAnkleAngles		LAnkleAngles
			X1	Y1	Z1	X2	Y2	Z2	X3	Y3	Z3	X4	Y4	Z4	X5	Y5	Z5	X6	Y6	Z6	X7	Y7	Z7	X8	Y8	Z8	X9	Y9	Z9	X10	Y10	Z10	X11	Y11	Z11	X12	Y12	Z12	X13	Y13	Z13	X14	Y14	Z14	X15	Y15	Z15	X16	Y16	Z16	X17	Y17	Z17	X18	Y18	Z18	X19	Y19	Z19	X20	Y20	Z20	X21	Y21	Z21	X22	Y22	Z22	X23	Y23	Z23	X24	Y24	Z24	X25	Y25	Z25	X26	Y26	Z26	X27	Y27	Z27	X28	Y28	Z28	X29	Y29	Z29	X30	Y30	Z30	X31	Y31	Z31	X32	Y32	Z32	X33	Y33	Z33	X34	Y34	Z34	X35	Y35	Z35	X36	Y36	Z36	X37	Y37	Z37	X38	Y38	Z38	X39	Y39	Z39	X40	Y40	Z40	X41	Y41	Z41	X42	Y42	Z42	X43	Y43	Z43	X44	Y44	Z44	X45	Y45	Z45	X46	Y46	Z46	X47	Y47	Z47

63	1.03333	6.03267	865.25140	0.83369	174.66777	863.75092	7.62921	-34.85278	459.20837	-22.51913	226.51840	460.32281	-32.93143	-80.28337	85.21490	-2.41875	287.94083	90.09711	5.78860	-94.31644	22.90797	-114.28490	301.55685	22.00631	-102.70735	273.02365	464.35190	-37.65223	-81.48534	461.75522	-27.01093	335.80905	98.83693	19.41736	-128.47540	91.19621	11.55431	-40.56902	1360.01953	6.04305	-97.70132	1347.16235	-250.50346	-81.73924	1370.53796	-474.46631	-74.84332	1373.01050	-556.52539	227.35254	1350.25830	0.57859	275.59079	1338.72070	-257.85028	262.13806	1371.94812	-480.73035	255.73262	1385.86475	-561.67889	90.52370	957.86902	20.54301	92.16844	1053.95886	7.91848	92.67281	1121.73840	24.88535	92.88264	1200.57141	68.04750	94.95233	1332.16040	81.61098	-0.00000	0.00000	-0.00000	137.93039	957.44720	22.45337	90.99432	1005.29840	19.33725	88.62477	959.09271	67.93623	237.01881	925.20905	-86.74619	-47.42134	927.74005	-98.20834	127.02733	929.80817	51.23069	51.17662	930.48309	48.17412	264.74042	681.65283	-14.95128	-79.09399	679.95935	-13.41394	290.14969	296.98123	-33.68519	-94.71690	237.34203	-33.03533	301.72092	13.41566	-174.81943	-95.41722	11.47098	-185.99237	302.28052	37.45525	65.27826	-97.14420	30.23624	54.22815	-5.47070	4.85489	-8.37101	-3.32517	2.49892	-3.23850	-5.93498	0.74870	0.12771	-0.60868	0.39353	0.02009	10.78620	5.55248	6.86342	10.77715	5.53703	11.18511
64	1.05000	6.45637	865.14069	1.43813	175.08629	863.77356	8.38885	-34.77870	459.14584	-22.13524	226.83293	460.33701	-32.21998	-80.52489	85.17679	-2.29810	288.02380	90.01105	5.90327	-94.36092	22.92814	-114.22128	301.66748	22.16232	-102.74077	273.33383	464.35895	-36.98954	-81.39528	461.74185	-26.76263	335.90735	98.68844	19.51811	-128.75198	91.18821	11.54040	-40.50899	1359.83826	6.24942	-97.27014	1347.40527	-250.40033	-81.45383	1370.56726	-474.39569	-74.54102	1372.50720	-556.46771	227.55754	1350.41992	0.81963	276.24905	1338.53162	-257.50830	262.34293	1371.69836	-480.36960	255.90446	1385.64917	-561.30963	90.85788	957.83301	21.17970	92.44774	1053.87500	8.47167	92.90042	1121.63513	25.36138	93.04681	1200.48645	68.41497	95.05105	1332.05823	81.78222	-0.00000	0.00000	-0.00000	138.26311	957.44867	23.13369	91.29304	1005.26215	19.95125	88.91458	959.07831	68.57057	237.47639	925.23383	-85.95936	-46.95500	927.53986	-97.68328	127.35500	929.81525	51.91448	51.50662	930.43018	48.78810	265.10748	681.66144	-14.28320	-78.81901	679.94000	-13.10434	290.35126	296.95300	-33.25916	-94.76640	237.32484	-32.90065	301.75305	13.74214	-174.87311	-95.28343	11.47892	-185.92932	302.56693	37.28995	65.27327	-97.67133	30.22036	54.28461	-5.50385	4.79251	-8.47844	-3.35811	2.60016	-3.35510	-5.84741	0.72599	0.15994	-0.60077	0.37505	0.02619	10.75822	5.55545	7.04833	10.78249	5.54250	11.26825
65	1.06667	6.47546	864.95801	2.53531	175.14163	863.59576	8.54139	-34.69187	459.02423	-22.17947	226.87521	460.11658	-31.65792	-80.51334	85.09045	-1.85939	288.49878	89.81183	5.97073	-94.65292	22.78662	-113.71385	301.68347	22.04391	-102.78033	273.34207	464.15781	-36.73291	-81.31976	461.62000	-26.69157	336.45865	98.51141	19.29971	-128.70465	91.12413	12.09363	-40.26147	1359.87769	6.67040	-96.54538	1347.48816	-250.08655	-81.08528	1370.44568	-474.12781	-74.56185	1372.54395	-556.22778	227.79274	1350.49500	1.03357	276.65771	1338.25964	-257.24539	262.57739	1371.51294	-480.08282	255.83243	1385.69531	-560.95758	90.98878	957.67749	21.66128	92.50271	1053.77429	8.85134	93.02876	1121.61401	25.69778	93.34798	1200.55066	68.72832	95.40267	1332.19214	82.07043	-0.00000	0.00000	-0.00000	138.40421	957.29456	23.34971	91.41824	1005.10468	20.35803	89.31157	958.99518	69.06035	237.00269	924.90991	-86.24922	-47.48989	927.20764	-96.37980	127.65712	929.70544	52.23342	51.79243	930.31812	49.53193	265.12772	681.49664	-14.37314	-78.77757	679.77631	-12.37475	290.47617	296.76813	-33.13501	-94.77985	237.21288	-32.57708	301.31662	13.65708	-174.91565	-95.74273	11.30891	-185.41498	303.64529	37.13384	65.22800	-97.57736	30.18188	54.79462	-5.48193	4.82696	-8.52593	-3.62305	2.58474	-3.54013	-5.72555	0.73479	0.19297	-0.83454	0.38881	0.02272	10.75903	5.55847	7.24563	10.75893	5.53657	11.29994
66	1.08333	6.70073	865.04102	2.87057	175.36462	863.62305	8.92840	-34.57383	459.11234	-21.75110	226.77211	460.16019	-31.84977	-80.45429	85.18210	-1.49648	288.16605	89.84262	6.02820	-94.65271	22.95284	-113.38506	301.57040	22.02300	-102.66379	273.24307	464.17050	-36.91170	-81.20397	461.71786	-26.23426	336.12207	98.52797	19.38029	-128.63753	91.21381	12.48527	-40.07108	1359.87439	7.11467	-96.16365	1347.55969	-249.68776	-80.83484	1370.44897	-473.74506	-74.24249	1372.53821	-555.83978	228.08473	1350.59583	1.34114	276.86423	1338.19397	-256.94608	262.39346	1371.43713	-479.76001	255.61354	1385.57874	-560.63904	91.23551	957.71735	22.11062	92.77589	1053.76160	9.34090	93.30591	1121.54102	26.19115	93.61788	1200.42651	69.20067	95.65568	1332.01587	82.48669	-0.00000	0.00000	-0.00000	138.65030	957.31873	23.81360	91.67944	1005.14563	20.85226	89.54378	958.99078	69.51039	237.27368	925.00830	-85.78487	-47.21507	927.39996	-96.00272	127.88596	929.70557	52.66788	52.02229	930.34332	49.94312	265.20422	681.48334	-14.23708	-78.60349	679.87604	-11.95514	290.28271	296.77545	-33.19476	-94.70893	237.31465	-32.16977	301.20721	13.61523	-174.79669	-95.76256	11.56463	-185.10016	303.51196	37.27296	65.33037	-97.50478	30.24028	55.12942	-5.51485	4.79479	-8.53305	-3.55951	2.58031	-3.48696	-5.84443	0.73683	0.20881	-0.81088	0.38876	0.01889	10.77445	5.55981	7.48498	10.73533	5.53180	11.30307
